<svg width="262" height="141" viewBox="0 0 262 141" fill="none" xmlns="http://www.w3.org/2000/svg">
<path d="M0.713684 70.65V76.29L130.694 127.8V122.16L0.713684 70.65Z" fill="url(#paint0_linear_739_4487)" stroke="#305C86" stroke-linecap="round" stroke-linejoin="round"/>
<path d="M130.694 127.8V122.16L260.664 70.6499V76.2899L130.694 127.8Z" fill="url(#paint1_linear_739_4487)" stroke="#305C86" stroke-linecap="round" stroke-linejoin="round"/>
<path d="M260.664 70.5L130.694 122.01L0.713684 70.5L130.694 19L260.664 70.5Z" fill="url(#paint2_linear_739_4487)" stroke="#0A649B" stroke-width="1.42739" stroke-linecap="round" stroke-linejoin="round"/>
<g opacity="0.4" filter="url(#filter0_f_739_4487)">
<path d="M223.214 70.5035L130.717 107L38.2137 70.5035L130.717 34L223.214 70.5035Z" fill="#01162A"/>
</g>
<g opacity="0.3">
<path d="M65.7039 44.8999L100.674 58.7599" stroke="white" stroke-linecap="round" stroke-linejoin="round"/>
<path d="M73.7527 41.8101L108.723 55.6701" stroke="white" stroke-linecap="round" stroke-linejoin="round"/>
<path d="M81.5731 38.73L116.553 52.59" stroke="white" stroke-linecap="round" stroke-linejoin="round"/>
<path d="M89.9637 35.4199L124.934 49.2799" stroke="white" stroke-linecap="round" stroke-linejoin="round"/>
<path d="M97.452 32.45L132.422 46.2999" stroke="white" stroke-linecap="round" stroke-linejoin="round"/>
<path d="M105.804 29.14L140.774 43" stroke="white" stroke-linecap="round" stroke-linejoin="round"/>
<path d="M113.372 26.0801L148.342 39.9301" stroke="white" stroke-linecap="round" stroke-linejoin="round"/>
<path d="M122.022 22.54L156.992 36.4" stroke="white" stroke-linecap="round" stroke-linejoin="round"/>
<path d="M41.5633 82.1699L76.5433 96.0299" stroke="white" stroke-linecap="round" stroke-linejoin="round"/>
<path d="M49.6141 79.0798L84.2541 92.8098" stroke="white" stroke-linecap="round" stroke-linejoin="round"/>
<path d="M57.8933 75.7699L92.5433 89.5099" stroke="white" stroke-linecap="round" stroke-linejoin="round"/>
<path d="M65.493 72.8L100.123 86.53" stroke="white" stroke-linecap="round" stroke-linejoin="round"/>
<path d="M73.9539 69.49L108.574 83.21" stroke="white" stroke-linecap="round" stroke-linejoin="round"/>
<path d="M81.8836 66.4299L116.394 80.1099" stroke="white" stroke-linecap="round" stroke-linejoin="round"/>
<path d="M170.913 58.76L200.933 70.65" stroke="white" stroke-linecap="round" stroke-linejoin="round"/>
<path d="M178.073 55.97L207.533 67.64" stroke="white" stroke-linecap="round" stroke-linejoin="round"/>
<path d="M185.704 53.03L215.164 64.7" stroke="white" stroke-linecap="round" stroke-linejoin="round"/>
<path d="M193.464 50.1301L222.924 61.8101" stroke="white" stroke-linecap="round" stroke-linejoin="round"/>
<path d="M129.194 99.22L158.594 110.87" stroke="white" stroke-linecap="round" stroke-linejoin="round"/>
<path d="M122.563 101.93L151.953 113.58" stroke="white" stroke-linecap="round" stroke-linejoin="round"/>
<path d="M116.354 104.44L145.744 116.09" stroke="white" stroke-linecap="round" stroke-linejoin="round"/>
<path d="M107.864 107.75L137.264 119.4" stroke="white" stroke-linecap="round" stroke-linejoin="round"/>
<path d="M35.9832 84.51L165.963 33" stroke="white" stroke-linecap="round" stroke-linejoin="round"/>
<path d="M71.4031 98.15L200.433 47.02" stroke="white" stroke-linecap="round" stroke-linejoin="round"/>
<path d="M100.973 110.26L230.943 58.76" stroke="white" stroke-linecap="round" stroke-linejoin="round"/>
<path d="M31.5336 68.2601L32.7336 68.8001L29.5336 70.0501L32.5136 71.4101L35.0936 70.3901L36.3236 70.9501L33.7436 71.9801L37.9836 73.9201L37.0236 74.3101L27.3836 69.8801L31.5336 68.2601Z" fill="white"/>
<path d="M43.1743 71.82L41.9043 71.25L43.3643 70.66L36.1743 67.46L34.8243 67.99L33.6043 67.45L37.2943 66.01L38.5143 66.55L37.1043 67.1L44.2943 70.29L45.8143 69.68L47.0843 70.24L43.1743 71.82Z" fill="white"/>
<path d="M48.9836 69.47L39.2936 65.24L40.3236 64.84L49.6136 67.09L42.4536 64.01L43.3136 63.67L53.0236 67.83L52.1036 68.2L42.1836 65.78L49.8536 69.11L48.9836 69.46V69.47Z" fill="white"/>
<path d="M46.5536 62.4101L47.5736 62.0101L59.1636 65.3501L58.3236 65.6901L55.1936 64.7801L53.0936 65.6201L55.2236 66.9401L54.4036 67.2701L46.5536 62.4001V62.4101ZM52.1036 65.0101L53.7536 64.3501L48.3436 62.7601L52.1036 65.0101Z" fill="white"/>
<path d="M60.5236 64.8001L50.7936 60.7601L51.7836 60.3701L61.0136 62.5201L53.8236 59.5801L54.6536 59.2601L64.3936 63.2401L63.5136 63.6001L53.6636 61.2901L61.3736 64.4701L60.5436 64.8101L60.5236 64.8001Z" fill="white"/>
<path d="M58.273 57.73C59.213 57.36 60.763 57.37 62.963 58.03L62.703 58.47C60.933 57.97 60.093 57.98 59.493 58.21C58.593 58.56 59.323 59.23 61.453 60.09L62.343 60.45C64.533 61.33 66.143 61.6 67.063 61.22C67.833 60.91 67.223 60.36 66.323 59.84L67.473 59.73C68.743 60.49 69.443 61.29 68.323 61.74C66.913 62.31 64.383 61.96 61.483 60.79L60.593 60.43C58.603 59.62 56.633 58.37 58.283 57.73H58.273Z" fill="white"/>
<path d="M65.3131 55.0901L66.5331 55.5701L63.8731 56.6101L66.7631 57.7501L68.9431 56.8901L70.1831 57.3701L68.0031 58.2401L71.1631 59.4901L73.9631 58.3601L75.2231 58.8501L71.5831 60.3201L61.8231 56.4501L65.3131 55.0901Z" fill="white"/>
<path d="M112.863 63.8601C114.283 63.2901 116.863 63.6001 119.623 64.6401L121.103 65.2001C123.823 66.2301 124.653 67.2101 123.283 67.7501C121.913 68.2901 119.323 68.0201 116.603 67.0101L115.113 66.4601C112.293 65.4101 111.453 64.4201 112.863 63.8601ZM117.513 66.6401C119.613 67.4201 121.253 67.6401 122.093 67.3101C122.933 66.9801 122.243 66.3601 120.153 65.5701L118.673 65.0101C116.693 64.2601 114.973 63.9401 114.053 64.3101C113.133 64.6801 114.023 65.3301 116.023 66.0801L117.513 66.6301V66.6401Z" fill="white"/>
<path d="M117.124 62.26L119.144 61.45C120.414 60.94 122.444 60.89 124.574 61.71C126.724 62.54 126.534 63.31 125.284 63.81L124.204 64.24L128.124 65.74L127.214 66.1L117.134 62.25L117.124 62.26ZM124.084 63.31C124.924 62.98 124.764 62.54 123.614 62.09C122.364 61.61 121.284 61.6 120.484 61.92L119.334 62.38L122.934 63.76L124.074 63.31H124.084Z" fill="white"/>
<path d="M127.364 58.1802L128.644 58.6902L125.554 59.9202L128.554 61.1002L131.064 60.1002L132.324 60.6002L129.814 61.6002L132.974 62.8402L136.184 61.5702L137.414 62.0602L133.264 63.7102L123.294 59.8102L127.364 58.1902V58.1802Z" fill="white"/>
<path d="M139.404 61.27L129.544 57.31L131.334 56.6C132.594 56.1 134.634 55.83 136.654 56.66L136.974 56.79C138.354 57.36 138.534 57.94 137.934 58.46L137.884 58.48L144.034 59.44L142.964 59.86L137.034 58.93L136.204 59.26L140.304 60.91L139.404 61.27ZM134.994 58.76L135.914 58.39C136.744 58.06 137.094 57.59 136.024 57.15L135.704 57.02C134.534 56.54 133.464 56.74 132.654 57.07L131.734 57.44L134.994 58.76Z" fill="white"/>
<path d="M137.423 54.17L138.543 53.72L150.273 56.96L149.363 57.32L146.283 56.46L144.003 57.37L146.023 58.64L145.143 58.99L137.433 54.16L137.423 54.17ZM143.033 56.78L144.833 56.07L139.303 54.52L143.033 56.78Z" fill="white"/>
<path d="M142.233 53.2701L140.983 52.7401L146.003 50.7401L147.243 51.2701L145.233 52.0701L153.593 55.6401L152.633 56.0201L144.263 52.4601L142.253 53.2601L142.233 53.2701Z" fill="white"/>
<path d="M157.284 54.1802L156.084 53.6602L157.604 53.0602L150.544 49.9802L149.114 50.5502L147.864 50.0102L151.794 48.4502L153.034 49.0002L151.524 49.6002L158.574 52.6902L160.164 52.0602L161.354 52.5902L157.284 54.2002V54.1802Z" fill="white"/>
<path d="M155.983 46.6701C157.433 46.0901 159.913 46.4501 162.463 47.6101L163.823 48.2301C166.333 49.3701 167.013 50.4201 165.603 50.9801C164.193 51.5401 161.713 51.2001 159.203 50.0801L157.823 49.4701C155.223 48.3101 154.523 47.2501 155.973 46.6701H155.983ZM160.153 49.7001C162.093 50.5701 163.663 50.8301 164.523 50.4901C165.383 50.1501 164.793 49.4801 162.863 48.6001L161.493 47.9801C159.663 47.1501 158.033 46.7901 157.083 47.1601C156.133 47.5301 156.923 48.2401 158.773 49.0801L160.143 49.6901L160.153 49.7001Z" fill="white"/>
<path d="M169.563 49.3201L160.263 45.0701L161.383 44.6201L170.603 46.8901L163.703 43.7001L164.653 43.3201L173.873 47.6101L172.883 48.0001L163.193 45.6201L170.483 48.9501L169.553 49.3201H169.563Z" fill="white"/>
<path d="M115.193 88.25L116.413 88.72L113.093 90.03L116.083 91.2L118.753 90.15L119.973 90.63L117.303 91.68L121.483 93.31L120.503 93.7L110.903 89.94L115.193 88.25Z" fill="white"/>
<path d="M126.872 91.1701L125.632 90.6901L127.162 90.0801L120.002 87.3101L118.582 87.8701L117.352 87.3901L121.242 85.8601L122.472 86.3401L120.982 86.9301L128.142 89.7001L129.752 89.0601L130.992 89.5401L126.872 91.1701Z" fill="white"/>
<path d="M133.024 88.7401L123.374 85.0201L124.474 84.5901L133.914 86.4301L126.754 83.6901L127.684 83.3201L137.344 87.0201L136.354 87.4101L126.334 85.4401L133.944 88.3601L133.014 88.7301L133.024 88.7401Z" fill="white"/>
<path d="M130.473 83.17L129.253 82.7L134.213 80.74L135.433 81.21L133.433 82L141.893 85.22L140.923 85.61L132.473 82.38L130.473 83.17Z" fill="white"/>
<path d="M139.914 78.51L141.144 78.97L138.054 80.19L140.944 81.28L143.474 80.28L144.704 80.75L142.174 81.75L145.284 82.93L148.544 81.64L149.784 82.11L145.554 83.78L135.864 80.1L139.924 78.5L139.914 78.51Z" fill="white"/>
<path d="M144.114 76.74C145.184 76.32 146.844 76.27 149.104 76.87L148.744 77.34C146.934 76.89 146.024 76.93 145.334 77.2C144.304 77.6 144.994 78.27 147.124 79.07L148.004 79.4C150.174 80.21 151.834 80.42 152.874 80.01C153.744 79.66 153.204 79.13 152.344 78.62L153.594 78.46C154.794 79.2 155.384 79.98 154.114 80.48C152.514 81.11 149.904 80.86 147.024 79.78L146.134 79.44C144.134 78.68 142.224 77.47 144.094 76.74H144.114Z" fill="white"/>
<path d="M157.784 78.9401L148.044 75.3001L148.974 74.9301L153.234 76.5201L155.754 75.5201L151.484 73.9301L152.414 73.5601L162.164 77.1901L161.234 77.5601L157.014 75.9901L154.494 76.9901L158.704 78.5601L157.764 78.9301L157.784 78.9401Z" fill="white"/>
<path d="M170.574 90.38L171.824 90.93L168.724 92.17L171.684 93.48L174.234 92.46L175.504 93.02L172.954 94.05L176.184 95.48L179.484 94.15L180.784 94.72L176.494 96.45L166.514 92.03L170.584 90.4L170.574 90.38Z" fill="white"/>
<path d="M172.575 89.5801L173.835 89.0801L180.485 91.2101L180.675 91.1301L175.755 88.3201L177.015 87.8201L187.155 92.1401L186.215 92.5201L178.535 89.1201L178.345 89.2001L183.315 92.1601L182.825 92.3601L175.815 90.2101L175.625 90.2901L183.515 93.6201L182.645 93.9701L172.575 89.6101V89.5801Z" fill="white"/>
<path d="M178.924 87.0399L180.934 86.2399C182.194 85.7399 184.204 85.7099 186.324 86.5899C188.504 87.4999 188.334 88.2999 187.064 88.8099L185.964 89.2499L190.024 90.9599L189.094 91.3399L178.924 87.0399ZM185.834 88.2499C186.674 87.9099 186.514 87.4499 185.354 86.9599C184.114 86.4399 183.034 86.4199 182.234 86.7399L181.094 87.1999L184.684 88.7099L185.834 88.2499Z" fill="white"/>
<path d="M185.294 84.4899L186.234 84.1099L195.184 87.7799L198.154 86.5799L199.494 87.1199L195.564 88.7099L185.294 84.4799V84.4899Z" fill="white"/>
<path d="M192.724 81.4199C194.114 80.8599 196.674 81.1999 199.474 82.3099L200.994 82.9099C203.844 84.0399 204.774 85.0999 203.384 85.6699C201.994 86.2399 199.294 85.8799 196.484 84.7499L194.974 84.1399C192.164 83.0099 191.344 81.9799 192.734 81.4199H192.724ZM197.404 84.3699C199.574 85.2399 201.274 85.5099 202.124 85.1699C202.974 84.8299 202.224 84.1499 200.044 83.2799L198.524 82.6799C196.524 81.8799 194.804 81.5299 193.894 81.8999C192.984 82.2699 193.874 82.9399 195.884 83.7599L197.394 84.3699H197.404Z" fill="white"/>
<path d="M195.974 80.23L197.044 79.8L203.034 80.94L199.994 78.62L200.964 78.23L205.034 81.35L209.474 83.1L208.524 83.48L204.134 81.76L195.964 80.22L195.974 80.23Z" fill="white"/>
<path d="M206.474 76.03L207.794 76.53L204.804 77.73L207.924 78.93L210.384 77.94L211.724 78.45L209.264 79.44L212.674 80.75L215.854 79.47L217.224 79.99L213.084 81.66L202.554 77.6L206.484 76.03H206.474Z" fill="white"/>
<path d="M212.444 73.64L213.774 74.13L210.804 75.32L213.944 76.5L216.384 75.52L217.734 76.02L215.284 77L218.714 78.29L221.874 77.01L223.254 77.52L219.134 79.18L208.514 75.19L212.414 73.63L212.444 73.64Z" fill="white"/>
<path d="M222.175 75.2C223.495 75.65 225.085 75.84 226.055 75.45C226.805 75.15 226.625 74.65 225.535 74.26C222.625 73.2 221.285 75.4 217.235 73.91C215.645 73.33 215.155 72.46 216.305 72C217.455 71.54 219.395 71.71 221.225 72.1L220.915 72.61C219.695 72.32 218.465 72.16 217.635 72.49C217.005 72.74 217.045 73.17 217.975 73.51C220.735 74.52 222.075 72.32 226.325 73.85C228.155 74.51 228.735 75.42 227.435 75.95C226.045 76.51 223.905 76.38 221.835 75.74L222.165 75.19L222.175 75.2Z" fill="white"/>
</g>
<path d="M260.664 70.65L130.694 122.16L0.713684 70.65L130.694 19.15L260.664 70.65Z" stroke="#0A649B" stroke-linecap="round" stroke-linejoin="round"/>
<defs>
<filter id="filter0_f_739_4487" x="4.21368" y="0" width="253" height="141" filterUnits="userSpaceOnUse" color-interpolation-filters="sRGB">
<feFlood flood-opacity="0" result="BackgroundImageFix"/>
<feBlend mode="normal" in="SourceGraphic" in2="BackgroundImageFix" result="shape"/>
<feGaussianBlur stdDeviation="17" result="effect1_foregroundBlur_739_4487"/>
</filter>
<linearGradient id="paint0_linear_739_4487" x1="0.213684" y1="99.22" x2="1.21368" y2="99.22" gradientUnits="userSpaceOnUse">
<stop stop-color="#01162A"/>
<stop offset="1" stop-color="#0A3258"/>
</linearGradient>
<linearGradient id="paint1_linear_739_4487" x1="130.694" y1="99.2199" x2="260.664" y2="99.2199" gradientUnits="userSpaceOnUse">
<stop stop-color="#01162A"/>
<stop offset="1" stop-color="#0A3258"/>
</linearGradient>
<linearGradient id="paint2_linear_739_4487" x1="130.689" y1="19" x2="130.689" y2="122.01" gradientUnits="userSpaceOnUse">
<stop stop-color="#003F6F"/>
<stop offset="1" stop-color="#0091FF"/>
</linearGradient>
</defs>
</svg>
