<svg width="261" height="110" viewBox="0 0 261 110" fill="none" xmlns="http://www.w3.org/2000/svg">
<path d="M0.5 52.0098V57.6398L130.48 109.15V103.51L0.5 52.0098Z" fill="url(#paint0_linear_293_2447)" stroke="#305C86" stroke-linecap="round" stroke-linejoin="round"/>
<path d="M130.48 109.15V103.51L260.45 52.0098V57.6398L130.48 109.15Z" fill="url(#paint1_linear_293_2447)" stroke="#305C86" stroke-linecap="round" stroke-linejoin="round"/>
<path d="M260.45 52.01L130.48 103.51L0.5 52.01L130.48 0.5L260.45 52.01Z" fill="url(#paint2_linear_293_2447)" stroke="#305C86" stroke-linecap="round" stroke-linejoin="round"/>
<g clip-path="url(#clip0_293_2447)">
<path d="M149.111 44.1599C146.491 43.1399 143.421 42.3499 139.971 41.7999C139.941 41.7999 139.911 41.7899 139.871 41.7799C139.831 41.7699 139.801 41.7799 139.771 41.7699C136.321 41.2299 132.701 40.9699 129.011 40.9999C125.411 41.0299 121.911 41.3299 118.591 41.8999C115.271 42.4699 112.321 43.2699 109.811 44.2799C107.211 45.3299 105.211 46.5599 103.861 47.9399C102.511 49.3299 101.891 50.7699 102.021 52.2399C102.141 53.6499 102.961 55.0299 104.431 56.3299C105.901 57.6299 107.961 58.7799 110.551 59.7599C113.221 60.7699 116.351 61.5499 119.831 62.0799C123.311 62.6099 126.941 62.8499 130.631 62.8099C134.191 62.7699 137.651 62.4599 140.921 61.8899C144.101 61.3399 146.941 60.5699 149.381 59.6099L149.581 59.5299C152.141 58.4899 154.131 57.2799 155.481 55.9199C156.831 54.5599 157.471 53.1299 157.381 51.6799C157.291 50.2799 156.521 48.9099 155.101 47.6099C153.671 46.3099 151.661 45.1499 149.101 44.1599H149.111ZM133.061 46.8999C130.761 49.2299 124.081 50.3799 118.151 49.4599L107.711 47.8499C110.991 45.8199 119.931 45.0399 129.871 45.9999C131.231 46.1299 132.641 46.1199 133.971 45.9799L133.061 46.9099V46.8999ZM133.301 51.3599C133.921 51.9199 134.751 52.4299 135.741 52.8699C134.251 52.9299 132.771 53.0799 131.361 53.3299C129.941 53.5699 128.661 53.8999 127.531 54.2899C127.371 53.6999 126.971 53.1199 126.351 52.5599C125.721 51.9999 124.901 51.4899 123.901 51.0499C125.401 50.9899 126.881 50.8399 128.301 50.5899C129.721 50.3499 131.011 50.0199 132.131 49.6299C132.291 50.2199 132.681 50.7999 133.311 51.3599H133.301ZM119.661 56.3499C110.721 54.3999 105.471 51.4399 106.511 49.0599L116.951 50.6699C119.831 51.1099 122.101 51.9699 123.341 53.0799C124.581 54.1899 124.651 55.4199 123.551 56.5399L122.641 57.4599C121.911 56.9999 120.891 56.6199 119.661 56.3499ZM126.611 56.9999C127.721 55.8799 129.871 54.9899 132.681 54.5099C135.481 54.0299 138.601 53.9999 141.451 54.4399L151.721 56.0199C148.471 58.0299 139.651 58.8199 129.791 57.8899C128.431 57.7599 127.031 57.7699 125.701 57.9199L126.611 56.9999ZM139.991 47.5699C148.841 49.5299 153.971 52.4799 152.901 54.8299L142.631 53.2399C139.781 52.7999 137.531 51.9499 136.301 50.8399C135.071 49.7299 135.001 48.4999 136.111 47.3699L137.021 46.4399C137.751 46.8999 138.761 47.2899 139.981 47.5599L139.991 47.5699ZM129.111 42.3099C131.841 42.2899 134.531 42.4399 137.131 42.7699L136.361 43.5499C135.471 44.4499 133.011 44.9599 130.631 44.7299C124.741 44.1599 118.871 44.1399 114.101 44.6599C113.861 44.6899 113.631 44.7099 113.401 44.7399C115.331 44.0599 117.521 43.5099 119.931 43.0899C122.851 42.5899 125.941 42.3199 129.101 42.2999L129.111 42.3099ZM107.451 55.8099C106.381 54.8699 105.711 53.8799 105.451 52.8599C105.571 52.9399 105.691 53.0199 105.821 53.1099C108.431 54.7699 112.781 56.3199 118.081 57.4699C120.211 57.9399 121.161 58.9599 120.281 59.8599L119.521 60.6299C117.051 60.1799 114.811 59.5799 112.851 58.8299C110.571 57.9699 108.761 56.9499 107.461 55.8099H107.451ZM130.541 61.5299C127.831 61.5599 125.161 61.4199 122.561 61.0999L123.321 60.3299C124.201 59.4399 126.651 58.9299 129.021 59.1499C134.861 59.6999 140.661 59.7099 145.371 59.1799C145.601 59.1499 145.831 59.1299 146.061 59.0999C144.151 59.7699 141.991 60.3199 139.621 60.7299C136.741 61.2299 133.681 61.4999 130.541 61.5399V61.5299ZM152.111 48.1199C153.151 49.0599 153.791 50.0499 154.031 51.0599C153.911 50.9799 153.791 50.8999 153.671 50.8099C151.131 49.1499 146.841 47.5999 141.591 46.4299C139.461 45.9599 138.531 44.9199 139.421 44.0199L140.191 43.2399C142.651 43.6999 144.881 44.3199 146.821 45.0699C149.071 45.9399 150.851 46.9699 152.111 48.1099V48.1199Z" fill="#0264A0"/>
</g>
<defs>
<linearGradient id="paint0_linear_293_2447" x1="0" y1="80.5798" x2="1" y2="80.5798" gradientUnits="userSpaceOnUse">
<stop stop-color="#01162A"/>
<stop offset="1" stop-color="#0A3258"/>
</linearGradient>
<linearGradient id="paint1_linear_293_2447" x1="130.48" y1="80.5798" x2="260.45" y2="80.5798" gradientUnits="userSpaceOnUse">
<stop stop-color="#01162A"/>
<stop offset="1" stop-color="#0A3258"/>
</linearGradient>
<linearGradient id="paint2_linear_293_2447" x1="65.4955" y1="116.996" x2="195.469" y2="-12.977" gradientUnits="userSpaceOnUse">
<stop stop-color="#01162A"/>
<stop offset="1" stop-color="#0A3258"/>
</linearGradient>
<clipPath id="clip0_293_2447">
<rect width="55.39" height="21.81" fill="white" transform="translate(102 41)"/>
</clipPath>
</defs>
</svg>
