<svg width="261" height="141" viewBox="0 0 261 141" fill="none" xmlns="http://www.w3.org/2000/svg">
<path d="M0.5 67.95V73.59L130.48 125.1V119.46L0.5 67.95Z" fill="url(#paint0_linear_739_4460)" stroke="#305C86" stroke-linecap="round" stroke-linejoin="round"/>
<path d="M130.48 125.1V119.46L260.45 67.95V73.59L130.48 125.1Z" fill="url(#paint1_linear_739_4460)" stroke="#305C86" stroke-linecap="round" stroke-linejoin="round"/>
<path d="M260.45 67.95L130.48 119.46L0.5 67.95L130.48 16.45L260.45 67.95Z" fill="url(#paint2_linear_739_4460)" stroke="#305C86" stroke-linecap="round" stroke-linejoin="round"/>
<g opacity="0.3">
<path d="M150.179 77.9599L141.009 81.1899C140.419 81.3999 139.609 81.4999 138.659 81.4899C137.769 81.4799 136.779 81.3699 135.789 81.1699C134.799 80.9699 133.849 80.6899 133.029 80.3499C132.159 79.9899 131.469 79.5799 131.029 79.1599L120.769 69.3199C120.339 68.9099 119.489 68.5399 118.489 68.3299C118.019 68.2299 116.859 68.0299 116.119 68.3199L110.339 70.5699C109.849 70.7599 108.799 70.6499 107.979 70.3199C107.159 69.9899 106.889 69.5699 107.379 69.3799L113.159 67.0999C114.349 66.6299 116.419 66.6399 118.689 67.1299C120.949 67.6099 122.939 68.4799 123.879 69.3999L133.989 79.2399C134.359 79.5999 135.139 79.9299 136.069 80.1199C136.989 80.3099 137.849 80.3099 138.359 80.1299L147.539 76.8599C147.949 76.7099 148.029 76.4499 147.749 76.1599L145.239 73.5399L142.259 73.7999C140.829 73.9799 138.979 73.8199 137.149 73.3399C135.289 72.8499 133.779 72.1299 133.009 71.3499L127.859 66.1999C127.469 65.8099 127.859 65.4999 128.719 65.5199C129.589 65.5399 130.609 65.8799 130.999 66.2699L136.069 71.4199C136.399 71.7599 137.059 72.0799 137.869 72.2899C138.679 72.4999 139.509 72.5799 140.139 72.4899C140.169 72.4899 140.209 72.4899 140.249 72.4799L143.909 72.1599L136.009 63.9099C135.099 62.9599 135.449 62.1299 136.949 61.7699C138.449 61.3999 140.739 61.5799 142.919 62.2299L161.409 67.7899C162.459 68.1099 163.379 68.4999 164.059 68.9399C164.699 69.3499 165.129 69.7799 165.309 70.1999C165.479 70.6099 165.389 70.9899 165.059 71.2899C164.699 71.6099 164.059 71.8399 163.219 71.9599C163.179 71.9599 163.149 71.9599 163.109 71.9699L147.979 73.2999L150.739 76.2199C151.429 76.9499 151.219 77.6099 150.189 77.9699L150.179 77.9599ZM161.219 70.6299C161.919 70.5199 162.249 70.2399 162.079 69.8599C161.909 69.4699 161.269 69.0799 160.369 68.8099L141.939 63.2999C141.059 63.0399 140.179 62.9699 139.569 63.1199C138.959 63.2699 138.819 63.5899 139.179 63.9699L146.669 71.8999L161.209 70.6199L161.219 70.6299Z" fill="white"/>
<path d="M113.369 62.1299C115.499 60.2699 114.849 59.1599 110.009 56.4599C109.759 56.3199 109.709 56.1699 109.879 56.0899C110.059 56.0199 110.419 56.0399 110.749 56.1499C117.089 58.2499 119.749 58.5499 124.389 57.6899C124.629 57.6499 124.999 57.7099 125.289 57.8299C125.579 57.9599 125.699 58.1099 125.579 58.2099C123.349 60.0999 123.949 61.1999 128.539 63.7899C128.769 63.9199 128.809 64.0599 128.629 64.1299C128.449 64.1999 128.109 64.1799 127.799 64.0799C121.719 62.0899 119.109 61.7999 114.569 62.6299C114.339 62.6699 113.969 62.6199 113.679 62.4999C113.389 62.3799 113.259 62.2299 113.369 62.1299Z" fill="white"/>
<path d="M113.54 55.89C114.66 54.88 114.32 54.28 111.78 52.84C111.65 52.77 111.62 52.68 111.72 52.64C111.81 52.6 112 52.61 112.17 52.67C115.5 53.79 116.9 53.95 119.34 53.49C119.47 53.47 119.66 53.49 119.82 53.57C119.97 53.64 120.04 53.72 119.98 53.78C118.83 54.8 119.16 55.4 121.63 56.81C121.76 56.88 121.78 56.96 121.68 57C121.59 57.04 121.4 57.03 121.24 56.97C117.98 55.88 116.59 55.72 114.19 56.17C114.07 56.19 113.87 56.17 113.72 56.1C113.57 56.03 113.5 55.95 113.56 55.9L113.54 55.89Z" fill="white"/>
</g>
<g opacity="0.4" filter="url(#filter0_f_739_4460)">
<path d="M223 70.5035L130.504 107L38 70.5035L130.504 34L223 70.5035Z" fill="#01162A"/>
</g>
<defs>
<filter id="filter0_f_739_4460" x="4" y="0" width="253" height="141" filterUnits="userSpaceOnUse" color-interpolation-filters="sRGB">
<feFlood flood-opacity="0" result="BackgroundImageFix"/>
<feBlend mode="normal" in="SourceGraphic" in2="BackgroundImageFix" result="shape"/>
<feGaussianBlur stdDeviation="17" result="effect1_foregroundBlur_739_4460"/>
</filter>
<linearGradient id="paint0_linear_739_4460" x1="0" y1="96.5299" x2="1" y2="96.5299" gradientUnits="userSpaceOnUse">
<stop stop-color="#01162A"/>
<stop offset="1" stop-color="#0A3258"/>
</linearGradient>
<linearGradient id="paint1_linear_739_4460" x1="130.48" y1="96.53" x2="260.45" y2="96.53" gradientUnits="userSpaceOnUse">
<stop stop-color="#01162A"/>
<stop offset="1" stop-color="#0A3258"/>
</linearGradient>
<linearGradient id="paint2_linear_739_4460" x1="152.804" y1="67.955" x2="0.500018" y2="67.955" gradientUnits="userSpaceOnUse">
<stop stop-color="#0F8DFF"/>
<stop offset="0.735577" stop-color="#983B3B"/>
<stop offset="1" stop-color="#0B6D18"/>
</linearGradient>
</defs>
</svg>
